<?xml version="1.0" encoding="utf-8"?>
<!-- Generator: Adobe Illustrator 23.0.4, SVG Export Plug-In . SVG Version: 6.00 Build 0)  -->
<svg version="1.1" id="Layer_1" xmlns="http://www.w3.org/2000/svg" xmlns:xlink="http://www.w3.org/1999/xlink" x="0px" y="0px"
	 viewBox="0 0 1024 1024" style="enable-background:new 0 0 1024 1024;" xml:space="preserve">
<style type="text/css">
	.st0{fill:#FFFFFF;}
</style>
<g>
	<g>
		<path class="st0" d="M992.5,756.3c-4.2-13.9-24.3-23.7-24.3-23.7l0,0c-1.9-1-3.6-1.9-5-2.6c-33.5-16.2-63.2-35.7-88.2-57.8
			c-20.1-17.8-37.3-37.4-51.1-58.2c-16.9-25.4-24.8-46.6-28.2-58.1c-1.9-7.5-1.6-10.5,0-14.4c1.3-3.3,5.2-6.4,7-7.9
			c11.3-8,29.5-19.8,40.7-27c9.7-6.3,18-11.7,22.9-15.1c15.7-11,26.5-22.2,32.8-34.3c8.2-15.6,9.2-32.8,2.8-49.7
			c-8.6-22.8-29.9-36.4-57-36.4c-6,0-12.2,0.7-18.4,2c-15.5,3.4-30.2,8.9-42.5,13.7c-0.9,0.4-1.9-0.3-1.8-1.3
			c1.3-30.5,2.8-71.5-0.6-110.4c-3-35.2-10.3-64.9-22.1-90.8c-11.9-26-27.4-45.2-39.5-59.1C708.5,112,688.2,92.5,657.6,75
			C614.6,50.4,565.6,37.9,512,37.9c-53.5,0-102.4,12.5-145.5,37.1c-32.4,18.5-53.1,39.4-62.5,50.2c-12.1,13.9-27.6,33.1-39.5,59.1
			c-11.9,25.9-19.1,55.5-22.1,90.8c-3.4,39.1-2,76.8-0.6,110.4c0,1-0.9,1.7-1.9,1.3c-12.3-4.8-27-10.3-42.5-13.7
			c-6.1-1.3-12.3-2-18.4-2c-27,0-48.3,13.6-57,36.4c-6.4,16.9-5.4,34.1,2.8,49.7c6.4,12.1,17.1,23.3,32.8,34.3
			c4.8,3.4,13.2,8.8,22.9,15.1c10.9,7.1,28.6,18.6,40,26.5c1.4,1,6.2,4.6,7.7,8.4c1.6,4,1.9,7-0.2,15c-3.5,11.6-11.4,32.6-28,57.5
			c-13.8,20.9-31,40.4-51.1,58.2c-25,22.1-54.7,41.6-88.2,57.8c-1.6,0.8-3.5,1.7-5.5,2.9l0,0c0,0-20,10.2-23.8,23.4
			c-5.6,19.5,9.3,37.8,24.4,47.6c24.8,16,55,24.6,72.5,29.3c4.9,1.3,9.3,2.5,13.3,3.7c2.5,0.8,8.8,3.2,11.5,6.7
			c3.4,4.4,3.8,9.8,5,15.9v0c1.9,10.3,6.2,23,18.9,31.8c14,9.6,31.7,10.3,54.2,11.2c23.5,0.9,52.7,2,86.2,13.1
			c15.5,5.1,29.6,13.8,45.8,23.8c34,20.9,76.3,46.9,148.5,46.9c72.3,0,114.9-26.1,149.1-47.1c16.2-9.9,30.1-18.5,45.3-23.5
			c33.5-11.1,62.7-12.2,86.2-13.1c22.5-0.9,40.2-1.5,54.2-11.2c13.6-9.4,17.5-23.4,19.3-33.9c1-5.2,1.6-9.9,4.6-13.7
			c2.6-3.3,8.4-5.6,11.1-6.5c4.1-1.3,8.7-2.5,13.8-3.9c17.5-4.7,39.5-10.2,66.2-25.3C993.7,789.8,995.9,767.4,992.5,756.3z"/>
	</g>
	<path d="M1020.3,745.5c-7.1-19.4-20.7-29.7-36.1-38.3c-2.9-1.7-5.6-3.1-7.8-4.1c-4.6-2.4-9.3-4.7-14-7.1
		c-48.1-25.5-85.7-57.7-111.7-95.8c-8.8-12.9-14.9-24.5-19.2-34c-2.2-6.4-2.1-10-0.5-13.3c1.2-2.5,4.4-5.1,6.2-6.4
		c8.3-5.5,16.8-11,22.6-14.7c10.3-6.7,18.5-12,23.7-15.6c19.8-13.8,33.6-28.5,42.2-44.9c12.2-23.1,13.7-49.5,4.3-74.3
		c-13-34.4-45.6-55.8-85-55.8c-8.2,0-16.5,0.9-24.7,2.7c-2.2,0.5-4.3,1-6.4,1.5c0.4-23.4-0.2-48.4-2.3-72.8
		c-7.4-86-37.5-131.1-68.9-167c-13.1-15-35.9-36.9-70.1-56.5C624.9,21.7,570.9,7.9,512,7.9c-58.7,0-112.7,13.8-160.4,41.1
		c-34.4,19.6-57.2,41.6-70.2,56.5c-31.4,35.9-61.5,81-68.9,167c-2.1,24.4-2.6,49.4-2.3,72.8c-2.1-0.5-4.3-1-6.4-1.5
		c-8.2-1.8-16.6-2.7-24.7-2.7c-39.4,0-72,21.4-85,55.8c-9.4,24.8-7.9,51.2,4.3,74.3c8.6,16.4,22.5,31.1,42.2,44.9
		c5.3,3.7,13.4,9,23.7,15.6c5.6,3.6,13.7,8.9,21.7,14.2c1.2,0.8,5.5,4,7,7c1.7,3.4,1.7,7.1-0.8,13.9c-4.2,9.3-10.3,20.7-18.9,33.3
		c-25.5,37.3-62,68.9-108.5,94.1c-24.7,13.1-50.3,21.8-61.1,51.2c-8.2,22.2-2.8,47.5,17.9,68.8l0,0c6.8,7.3,15.4,13.8,26.2,19.8
		c25.4,14,47,20.9,64,25.6c3,0.9,9.9,3.1,12.9,5.8c7.6,6.6,6.5,16.6,16.6,31.2c6.1,9.1,13.1,15.3,18.9,19.3
		c21.1,14.6,44.9,15.5,70.1,16.5c22.7,0.9,48.5,1.9,77.9,11.6c12.2,4,24.9,11.8,39.5,20.8c35.2,21.7,83.5,51.3,164.2,51.3
		c80.8,0,129.3-29.8,164.8-51.5c14.6-8.9,27.2-16.7,39-20.6c29.4-9.7,55.2-10.7,77.9-11.6c25.2-1,48.9-1.9,70.1-16.5
		c6.6-4.6,15-12.1,21.6-23.5c7.2-12.3,7.1-21,13.9-26.9c2.8-2.4,8.9-4.5,12.2-5.5c17.1-4.7,39-11.6,64.9-25.9
		c11.5-6.3,20.4-13.2,27.5-21.1c0.1-0.1,0.2-0.2,0.3-0.3C1023.4,791.7,1028.3,767.2,1020.3,745.5z M948.6,784
		c-43.8,24.2-72.9,21.6-95.5,36.1c-19.2,12.4-7.9,39.1-21.8,48.7c-17.2,11.9-67.9-0.8-133.4,20.8c-54,17.9-88.5,69.2-185.8,69.2
		c-97.5,0-131-51.1-185.8-69.2c-65.5-21.6-116.3-8.9-133.4-20.8c-13.9-9.6-2.6-36.3-21.8-48.7c-22.6-14.6-51.7-12-95.5-36.1
		c-27.9-15.4-12.1-24.9-2.8-29.4c158.6-76.7,183.8-195.3,185-204.2c1.4-10.6,2.9-19-8.8-29.9c-11.3-10.5-61.6-41.6-75.5-51.3
		c-23.1-16.1-33.2-32.2-25.7-52c5.2-13.7,18-18.8,31.5-18.8c4.2,0,8.5,0.5,12.6,1.4c25.3,5.5,49.9,18.2,64.1,21.6
		c2,0.5,3.7,0.7,5.2,0.7c7.6,0,10.2-3.8,9.7-12.5c-1.6-27.7-5.6-81.7-1.2-132.2c6-69.4,28.4-103.8,55-134.3
		c12.8-14.6,72.8-78,187.5-78c115,0,174.7,63.4,187.5,78c26.6,30.4,49,64.8,55,134.3c4.4,50.5,0.6,104.5-1.2,132.2
		c-0.6,9.1,2.2,12.5,9.7,12.5c1.5,0,3.3-0.2,5.2-0.7c14.2-3.4,38.8-16.1,64.1-21.6c4.1-0.9,8.4-1.4,12.6-1.4
		c13.5,0,26.3,5.2,31.5,18.8c7.5,19.8-2.7,35.9-25.7,52c-13.9,9.7-64.2,40.8-75.5,51.3c-11.7,10.8-10.2,19.2-8.8,29.9
		c1.1,8.9,26.4,127.5,185,204.2C960.6,759.1,976.5,768.6,948.6,784z"/>
</g>
</svg>
