<!-- This file is generated automatically - DO NOT EDIT -->
<svg xmlns="http://www.w3.org/2000/svg" fill="none" viewBox="0 0 140 40">
    <path fill="#FFBBD0" d="M18.412 12.216c-4.287 0-5.808 3.454-5.912 3.707a6.332 6.332 0 0 0-5.91-3.707 6.627 6.627 0 0 0-4.653 2.01A6.856 6.856 0 0 0 0 18.975c0 7.282 6.87 13.184 12.5 13.184 5.628 0 12.5-5.902 12.5-13.184a6.856 6.856 0 0 0-1.937-4.748 6.627 6.627 0 0 0-4.65-2.01zm1.13 7.037c0 1.9-0.742 3.722-2.063 5.065a6.983 6.983 0 0 1-4.98 2.099 6.983 6.983 0 0 1-4.98-2.099 7.226 7.226 0 0 1-2.062-5.065v-0.205h2.49v0.205A4.674 4.674 0 0 0 9.28 22.53a4.517 4.517 0 0 0 3.221 1.357 4.517 4.517 0 0 0 3.221-1.357 4.675 4.675 0 0 0 1.335-3.277v-0.205h2.49l-0.006 0.205zm110.438-7.03c-5.791 0-10.02 4.252-10.02 9.988 0 5.735 4.232 9.989 10.02 9.989 5.788 0 10.02-4.252 10.02-9.99 0-5.836-4.23-9.986-10.02-9.986zm0 15.93c-3.174 0-5.338-2.458-5.338-5.942 0-3.485 2.164-5.94 5.338-5.94s5.337 2.458 5.337 5.94c0 3.481-2.166 5.943-5.337 5.943zm-22.251-15.93c-5.79 0-10.02 4.252-10.02 9.988 0 5.735 4.232 9.989 10.02 9.989 5.788 0 10.023-4.252 10.023-9.99-0.008-5.836-4.237-9.986-10.023-9.986zm0 15.93c-3.172 0-5.337-2.458-5.337-5.942 0-3.485 2.165-5.94 5.337-5.94 3.172 0 5.337 2.458 5.337 5.94 0 3.481-2.17 5.943-5.337 5.943zm-65.012-15.93c-3.122 0-5.44 1.383-6.799 3.74V7h-4.232v14.7c0 6.248 3.625 10.5 9.868 10.5 5.136 0 9.92-3.74 9.92-10.09-0.007-5.379-3.168-9.886-8.757-9.886zm-1.208 15.725c-3.423 0-5.387-2.509-5.387-5.737 0-3.277 1.912-5.94 5.337-5.94 3.274 0 5.338 2.663 5.338 5.94-0.002 3.228-1.865 5.738-5.288 5.738zm22.104-15.724c-5.136 0-9.92 3.74-9.92 10.09 0 5.379 3.171 9.876 8.763 9.876 3.121 0 5.437-1.383 6.796-3.74v3.545h4.232v-9.27c-0.002-6.25-3.627-10.501-9.87-10.501zm0 15.93c-3.373 0-5.228-2.563-5.228-5.84 0-3.226 1.865-5.839 5.288-5.839s5.387 2.51 5.387 5.736c-0.01 3.279-2.024 5.943-5.447 5.943zM91.256 7v8.964c-1.359-2.358-3.674-3.74-6.796-3.74-5.591 0-8.763 4.507-8.763 9.875 0 6.455 4.481 10.09 9.709 10.09 6.244 0 10.07-4.25 10.07-10.5V7.003L91.256 7zm-5.589 20.948c-3.423 0-5.287-2.509-5.287-5.737 0-3.277 2.066-5.94 5.337-5.94 3.426 0 5.338 2.612 5.338 5.94-0.005 3.228-1.965 5.738-5.388 5.738z"/>
</svg>
