<svg version="1.1" id="Layer_1" xmlns="http://www.w3.org/2000/svg" xmlns:xlink="http://www.w3.org/1999/xlink" x="0px" y="0px" viewBox="0 0 124.7 31.5" style="enable-background:new 0 0 124.7 31.5;" xml:space="preserve">
<style type="text/css">
	.st0{display:none;}
	.st1{display:inline;fill:#007EE5;}
</style>
<g id="XMLID_12_" class="st0">
	<path id="XMLID_29_" class="st1" d="M0,1.4h8.4c7.2,0,11.7,4.6,11.7,11.9S15.6,25.1,8.4,25.1H0V1.4z M8.2,20.8c4.5,0,7-2.9,7-7.5   s-2.5-7.5-7-7.5H4.9v15H8.2z"/>
	<path id="XMLID_27_" class="st1" d="M32.8,12.6c-0.7-0.4-1.5-0.6-2.4-0.6c-1.6,0-2.9,0.8-3.3,2.4v10.7h-4.8V7.8h4.8v1.7   c0.7-1.2,2.2-2.1,3.9-2.1c0.8,0,1.5,0.2,1.8,0.3V12.6z"/>
	<path id="XMLID_24_" class="st1" d="M42.4,25.5c-5,0-8.5-3.7-8.5-9s3.4-9,8.5-9c5,0,8.5,3.7,8.5,9S47.4,25.5,42.4,25.5z M42.4,11.5   c-2.4,0-3.7,2.1-3.7,5s1.3,4.9,3.7,4.9s3.7-2.1,3.7-4.9C46.1,13.6,44.8,11.5,42.4,11.5z"/>
	<path id="XMLID_21_" class="st1" d="M57.7,31.5h-4.8V7.8h4.8v1.4c0.8-0.9,2.5-1.8,4.3-1.8c5,0,7.9,4.2,7.9,9c0,4.9-2.9,9-7.9,9   c-1.9,0-3.6-0.9-4.3-1.8V31.5z M57.7,19.3c0.6,1.2,1.9,2,3.2,2c2.6,0,4.1-2.1,4.1-4.8c0-2.8-1.5-4.9-4.1-4.9c-1.4,0-2.7,0.9-3.2,2   V19.3z"/>
	<path id="XMLID_18_" class="st1" d="M76.8,25.1H72V0h4.8v9.3c0.8-0.9,2.5-1.8,4.3-1.8c5,0,7.8,4.1,7.8,9s-2.8,9-7.8,9   c-1.9,0-3.6-0.9-4.3-1.8V25.1z M76.8,19.3c0.5,1.2,1.8,2,3.2,2c2.6,0,4.1-2.1,4.1-4.8c0-2.8-1.5-4.9-4.1-4.9c-1.4,0-2.7,0.9-3.2,2   V19.3z"/>
	<path id="XMLID_15_" class="st1" d="M99.2,25.6c-5,0-8.5-3.7-8.5-9s3.4-9,8.5-9c5,0,8.5,3.7,8.5,9C107.6,21.9,104.2,25.6,99.2,25.6   z M99.2,11.6c-2.4,0-3.7,2.1-3.7,5s1.3,4.9,3.7,4.9c2.4,0,3.7-2.1,3.7-4.9C102.9,13.7,101.6,11.6,99.2,11.6z"/>
	<path id="XMLID_13_" class="st1" d="M118.4,16.2l6.3,8.9h-5.3l-3.7-5.4l-3.8,5.4h-5l6.2-8.8l-5.9-8.5h5.3l3.3,4.9l3.4-4.9h5   L118.4,16.2z"/>
</g>
<g>
	<polygon id="Path_14_" points="106.5,24.3 113.1,15.5 107,7.2 112.2,7.2 115.8,12.4 119.4,7.2 124.6,7.2 118.4,15.5 124.9,24.3   119.8,24.3 115.7,18.7 111.8,24.3  "/>
	<path id="Path_6_" d="M98.5,24.8c-5.5,0-8.6-3-8.6-8.7v-0.5c0-5.8,3.7-8.9,8.6-8.9c5.1,0,8.6,3.2,8.6,8.9v0.5   C107.1,21.7,103.7,24.8,98.5,24.8z M98.5,20.9c2.5,0,4.1-1.7,4.1-4.8v-0.4c0-3.2-1.6-5.1-4.1-5.1c-2.5,0-4.1,1.8-4.1,5.1V16   C94.4,19.1,96,20.9,98.5,20.9z"/>
	<path id="Path_5_" d="M80.5,24.9c-2.9,0-4.7-1.4-5.6-3.6l-0.4,3h-3.9V1H75v9.3c1-2.2,2.8-3.5,5.6-3.5c4.2,0,7.1,2.9,7.1,8.6v0.5   C87.7,21.6,84.9,24.9,80.5,24.9z M79,21c2.6,0,4.1-1.7,4.1-5.1v-0.4c0-3.2-1.6-4.9-4-4.9c-2.5,0-4.2,2-4.2,4.9v0.4   C74.9,19.1,76.5,21,79,21z"/>
	<path id="Path_4_" d="M51.1,30.5V7.2h3.8l0.5,3.3c0.9-2.2,2.7-3.7,5.6-3.7c4.5,0,7.2,3.2,7.2,8.9v0.5c0,5.7-3.1,8.6-7.2,8.6   c-2.8,0-4.5-1.2-5.4-3.2v8.9H51.1z M59.5,21c2.6,0,4.1-1.7,4.1-4.9v-0.4c0-3.4-1.7-5.1-4-5.1c-2.5,0-4.1,1.9-4.1,5.1v0.3   C55.5,19.1,57,21,59.5,21z"/>
	<path id="Path_3_" d="M40.2,24.8c-5.5,0-8.6-3-8.6-8.7v-0.5c0-5.8,3.7-8.9,8.6-8.9c5.1,0,8.6,3.2,8.6,8.9v0.5   C48.8,21.7,45.4,24.8,40.2,24.8z M40.2,20.9c2.4,0,4-1.7,4-4.8v-0.4c0-3.2-1.5-5.1-3.9-5.1c-2.4,0-4,1.8-4,5.1V16   C36.3,19.1,37.8,20.9,40.2,20.9z"/>
	<path id="Path_2_" d="M20,24.3h4.5v-7.8c0-3.6,0.9-4.9,4.7-4.9h1.7V7h-0.9c-3.6,0-5,1.5-5.7,4.2l-0.6-4H20V24.3z"/>
	<path id="Path_1_" d="M-0.2,24.3V2.5h8c5.3,0,9.7,3.2,9.7,10.2v1.5c0,7-4.1,10.1-9.5,10.1H-0.2z M7.6,6.5H4.5v13.7h3.3   c3,0,5-2,5-6.3v-1.1C12.8,8.5,10.7,6.5,7.6,6.5z"/>
</g>
</svg>