<svg width="15" height="18" viewBox="0 0 15 18" fill="none" xmlns="http://www.w3.org/2000/svg">
<path d="M12.2313 9.57262C12.2402 8.8827 12.4235 8.20623 12.764 7.60616C13.1046 7.0061 13.5914 6.50193 14.1792 6.14057C13.8058 5.60728 13.3132 5.16841 12.7405 4.85881C12.1679 4.54921 11.5309 4.37741 10.8802 4.35705C9.49213 4.21135 8.14648 5.18763 7.43916 5.18763C6.71815 5.18763 5.62912 4.37151 4.45641 4.39564C3.69787 4.42015 2.95861 4.64073 2.31066 5.03588C1.66272 5.43104 1.12818 5.9873 0.759135 6.65047C-0.839491 9.41824 0.352939 13.4859 1.88429 15.7232C2.65046 16.8187 3.54588 18.0424 4.71754 17.999C5.86407 17.9515 6.29227 17.2679 7.67623 17.2679C9.04735 17.2679 9.4491 17.999 10.6445 17.9715C11.8748 17.9515 12.6499 16.8711 13.3892 15.7652C13.9397 14.9846 14.3633 14.1218 14.6443 13.2089C13.9296 12.9066 13.3196 12.4006 12.8905 11.754C12.4614 11.1073 12.2322 10.3487 12.2313 9.57262Z" fill="white"/>
<path d="M9.97312 2.88531C10.6439 2.08004 10.9744 1.045 10.8944 0C9.86954 0.107639 8.92288 0.597442 8.24302 1.37182C7.91061 1.75012 7.65603 2.19023 7.49381 2.66698C7.3316 3.14373 7.26494 3.64778 7.29764 4.15031C7.81024 4.15559 8.31736 4.04448 8.7808 3.82536C9.24423 3.60625 9.65191 3.28483 9.97312 2.88531Z" fill="white"/>
</svg>
