<svg xmlns="http://www.w3.org/2000/svg" width="16" height="16" viewBox="0 0 16 16"><title>assets</title><path fill="#777777" d="M1.143,6.857a1.107,1.107,0,0,1,.446.089,1.164,1.164,0,0,1,.607.607,1.161,1.161,0,0,1,0,.893,1.164,1.164,0,0,1-.607.607,1.107,1.107,0,0,1-.446.089A1.107,1.107,0,0,1,.7,9.054a1.164,1.164,0,0,1-.607-.607,1.161,1.161,0,0,1,0-.893A1.164,1.164,0,0,1,.7,6.946a1.107,1.107,0,0,1,.446-.089M8,6.857a1.107,1.107,0,0,1,.446.089,1.164,1.164,0,0,1,.607.607,1.161,1.161,0,0,1,0,.893,1.164,1.164,0,0,1-.607.607,1.161,1.161,0,0,1-.893,0,1.164,1.164,0,0,1-.607-.607,1.161,1.161,0,0,1,0-.893,1.164,1.164,0,0,1,.607-.607A1.107,1.107,0,0,1,8,6.857m6.857,0a1.107,1.107,0,0,1,.446.089,1.164,1.164,0,0,1,.607.607,1.161,1.161,0,0,1,0,.893,1.164,1.164,0,0,1-.607.607,1.161,1.161,0,0,1-.893,0,1.164,1.164,0,0,1-.607-.607,1.161,1.161,0,0,1,0-.893,1.164,1.164,0,0,1,.607-.607A1.107,1.107,0,0,1,14.857,6.857Z"/></svg>