<svg id="Layer_1" data-name="Layer 1" xmlns="http://www.w3.org/2000/svg" width='154' height='40' viewBox="0 0 453.75 118.11" focusable='false'>
    <defs>
        <style>.cls-1{fill:#fff;}</style>
    </defs>
    <path class="cls-1"
          d="M202,85.26l-4.89,15.08a1.1,1.1,0,0,1-1.12.82H184.12c-.71,0-.92-.41-.81-1L203.7,41.31a18.89,18.89,0,0,0,1-6.22.68.68,0,0,1,.61-.71h16.31c.51,0,.71.1.82.61l23.14,65.25c.2.51.1.92-.51.92H231.84a1,1,0,0,1-1.13-.71l-5.2-15.19Zm19.78-12.75c-2-6.73-6.12-19.06-8.05-26.3h-.1c-1.64,6.83-5.31,18-8,26.3Z"
          transform="translate(-6.07 -6.51)"/>
    <path class="cls-1"
          d="M247.21,76.28c0-14.58,10.91-26.81,29.57-26.81.81,0,1.83.1,3.36.2V29.59a.64.64,0,0,1,.71-.71H293.7c.51,0,.61.2.61.61V89.74a56.68,56.68,0,0,0,.41,7.44c0,.51-.1.72-.71.92a51.21,51.21,0,0,1-20.09,4.08C258.83,102.18,247.21,93.62,247.21,76.28Zm32.93-14.47a10.53,10.53,0,0,0-3.77-.51c-7.85,0-14.58,4.79-14.58,14.27,0,10.09,5.81,14.48,13.56,14.48a14.38,14.38,0,0,0,4.79-.61Z"
          transform="translate(-6.07 -6.51)"/>
    <path class="cls-1"
          d="M352.7,75.57c0,16-10.4,26.61-25.08,26.61-17.44,0-25.18-13.15-25.18-26.3,0-14.48,9.68-26.41,25.38-26.41C344.24,49.47,352.7,61.81,352.7,75.57Zm-35.89.1c0,9,4.18,14.68,11,14.68,5.92,0,10.4-5.09,10.4-14.47,0-8-3.26-14.58-11-14.58C321.3,61.3,316.81,66.6,316.81,75.67Z"
          transform="translate(-6.07 -6.51)"/>
    <path class="cls-1"
          d="M374.13,28.88c.81,0,1,.1,1,.81v20.9a32.93,32.93,0,0,1,8.56-1.12c15,0,24.47,10.6,24.47,24.26,0,19.07-15.09,28.45-30.58,28.45a53.11,53.11,0,0,1-16-2.35,1.18,1.18,0,0,1-.61-1V29.59c0-.51.2-.71.71-.71Zm7,32.62a20.49,20.49,0,0,0-6,.82V90a16.11,16.11,0,0,0,3.77.4c7.75,0,14.78-4.69,14.78-15.29C393.7,65.78,388.3,61.5,381.16,61.5Z"
          transform="translate(-6.07 -6.51)"/>
    <path class="cls-1"
          d="M428.11,79.55c.51,5.81,4.59,10.6,14.58,10.6a31.41,31.41,0,0,0,12.54-2.35c.31-.2.61-.1.61.51V98c0,.71-.2,1-.71,1.22-4.08,1.94-8.56,3-15.6,3-19.17,0-25.89-13.15-25.89-25.79,0-14.07,8.66-26.92,24.67-26.92,15.39,0,21.51,11.93,21.51,22a32.37,32.37,0,0,1-.51,6.83.88.88,0,0,1-.82.82,95.25,95.25,0,0,1-10.5.41Zm13.26-9.89a32.77,32.77,0,0,0,5.09-.21v-.71a8.29,8.29,0,0,0-8.66-8.06c-6.42,0-9.18,4.8-9.79,9Z"
          transform="translate(-6.07 -6.51)"/>
    <polygon class="cls-1" points="84.13 0 133.46 0 133.46 118.11 84.13 0"/>
    <polygon class="cls-1" points="49.37 0 0 0 0 118.11 49.37 0"/>
    <polygon class="cls-1"
             points="66.75 43.53 98.18 118.11 77.58 118.11 68.18 94.36 45.18 94.36 66.75 43.53"/>
</svg>
